<svg width="512" height="512" viewBox="0 0 512 512" fill="none" xmlns="http://www.w3.org/2000/svg">
<path d="M60.2613 393.154L25.5221 92.3805L252.479 11.5171L485.566 90.95L447.773 391.674L252.452 499.846L60.2613 393.154Z" stroke="#333333" stroke-width="8"/>
<path fill-rule="evenodd" clip-rule="evenodd" d="M489.941 88.2151L252.449 7.28125V66.1414L252.815 65.3266L403.88 386.865L352.426 385.949L320.749 312.706H253.182H252.999H252.449V504.42L451.488 394.372L489.941 88.2151Z" fill="#333333"/>
<path fill-rule="evenodd" clip-rule="evenodd" d="M252.735 55.75L410.232 390.98L349.779 389.904L318.121 316.707H194.183L165.27 388.989L102.479 390.057L252.735 55.75ZM252.896 74.9062L114.941 381.844L159.817 381.081L188.766 308.707H323.377L355.075 381.997L397.528 382.753L252.896 74.9062ZM252.949 158.295L308.237 273.86H204.312L252.949 158.295ZM253.416 177.809L216.358 265.86H295.541L253.416 177.809Z" fill="#333333"/>
</svg>
