<svg width="512" height="512" viewBox="0 0 512 512" fill="none" xmlns="http://www.w3.org/2000/svg">
<path fill-rule="evenodd" clip-rule="evenodd" d="M472.99 130.788C476.622 137.163 478.418 144.592 478.422 153C478.444 221.679 478.444 358.995 478.444 358.995C478.441 367.219 476.717 374.503 473.25 380.785C469.681 387.238 464.262 392.641 456.929 396.889C432.125 411.203 407.312 425.498 382.499 439.792C348.114 459.602 313.73 479.41 279.373 499.267C263.422 508.484 247.96 508.151 232.125 498.799C217.888 490.39 169.144 462.345 125.06 436.982C96.2382 420.399 69.4083 404.963 55.5174 396.91C48.184 392.66 42.7656 387.26 39.1962 380.802C35.724 374.521 34.0035 367.236 34 359.014C34.0113 324.674 34.0113 290.336 34.0113 255.999C34.0113 221.661 34.0113 187.323 34.0226 152.984C34.026 136.306 41.0677 123.474 55.5365 115.089C69.4729 107.009 96.4324 91.4955 125.361 74.8493C169.364 49.5284 217.923 21.5862 232.132 13.1979C247.96 3.8507 263.422 3.51563 279.368 12.7292C313.245 32.3081 347.147 51.8415 381.05 71.375C406.34 85.9462 431.63 100.517 456.91 115.108C464.076 119.264 469.422 124.517 472.99 130.788ZM371.318 225.182L302.153 224.694C302.153 224.694 298.04 187.191 258.165 187.191C218.292 187.191 208.755 230.241 208.755 257.059C208.755 274.701 215.821 326.573 258.165 326.573C304.038 326.573 302.273 286.512 302.273 286.512L368.257 290.285C368.257 324.92 347.089 386.208 258.517 386.208C203.823 386.208 133.602 354.45 133.602 257.059C133.602 159.667 205.234 125.792 258.517 125.792C342.148 125.792 371.318 196.365 371.318 225.182Z" fill="#333333"/>
</svg>
