<svg width="512" height="512" viewBox="0 0 512 512" fill="none" xmlns="http://www.w3.org/2000/svg">
<path fill-rule="evenodd" clip-rule="evenodd" d="M472.273 130.929C475.899 137.288 477.693 144.698 477.696 153.084C477.719 221.584 477.719 358.544 477.719 358.544C477.715 366.747 475.995 374.012 472.533 380.276C468.969 386.714 463.559 392.103 456.238 396.339C431.413 410.651 406.579 424.944 381.746 439.237L381.706 439.26L381.675 439.277C347.432 458.987 313.189 478.695 278.972 498.452C263.047 507.646 247.611 507.313 231.802 497.985C217.604 489.608 169.034 461.689 125.062 436.414C96.2298 419.842 69.3749 404.406 55.4826 396.36C48.1615 392.122 42.7517 386.736 39.1875 380.294C35.7205 374.03 34.0035 366.764 34 358.563C34.0113 324.313 34.0113 290.064 34.0113 255.815C34.0113 221.566 34.0113 187.317 34.0226 153.068C34.026 136.433 41.0556 123.634 55.5017 115.271C69.4389 107.198 96.4217 91.6866 125.358 75.0516L125.361 75.0497C169.253 49.8171 217.639 22.0011 231.809 13.6443C247.611 4.3214 263.047 3.98633 278.967 13.1773C312.706 32.6574 346.469 52.0921 380.233 71.5268L380.246 71.5343C405.574 86.1132 430.902 100.692 456.219 115.29C463.375 119.434 468.71 124.676 472.273 130.929ZM448.941 264.092H465.819V247.215H448.941V230.337H432.059V247.215H415.182V264.092H432.059V280.974H448.941V264.092ZM404.231 264.092H387.354V280.974H370.476V264.092H353.597V247.215H370.476V230.337H387.354V247.215H404.231V264.092ZM255.859 329.189C283.302 329.189 307.214 314.108 319.797 291.792L383.835 328.894C358.444 373.261 310.642 403.167 255.859 403.167C201.177 403.167 153.45 373.38 128.023 329.144C115.609 307.549 108.507 282.512 108.507 255.814C108.507 174.436 174.477 108.464 255.859 108.464C310.37 108.464 357.962 138.068 383.453 182.071L319.319 219.002C306.609 197.148 282.958 182.441 255.859 182.441C215.337 182.441 182.484 215.292 182.484 255.814C182.484 269.066 186.017 281.488 192.161 292.217C204.809 314.297 228.585 329.189 255.859 329.189Z" fill="#333333"/>
</svg>
