<svg width="512" height="512" viewBox="0 0 512 512" fill="none" xmlns="http://www.w3.org/2000/svg">
<g clip-path="url(#clip0_403_704)">
<path fill-rule="evenodd" clip-rule="evenodd" d="M79 103.954L111.214 465.261L255.777 505.392L400.734 465.202L432.982 103.954H79ZM373.275 442.47L256.288 474.653V428.666L255.936 428.75L165.01 403.573L158.802 334.042H203.288L206.517 369.336L255.946 382.611L256.288 382.559V311.034H156.619L152.738 266.786L256.288 222.466V219.405H148.797L144.871 175.158H255.839H256.288V134.043H400.685L373.275 442.47Z" fill="#0B0B13"/>
<path fill-rule="evenodd" clip-rule="evenodd" d="M263.431 219.405L256.289 222.466V266.786V311.034H310.405L305.487 368.884L256.289 382.597V428.701L346.913 403.525L358.847 266.786H256.289L362.87 219.405L366.676 175.157H256.289V218.85V219.405H263.431Z" fill="#0B0B13"/>
<g clip-path="url(#clip1_403_704)">
<path fill-rule="evenodd" clip-rule="evenodd" d="M204.664 29.0089V6H149.796V73.2566H204.664V50.2478H172.805V29.0089H204.664Z" fill="#0B0B13"/>
<path fill-rule="evenodd" clip-rule="evenodd" d="M282.54 6H227.673V29.6186L250.567 50.2478H227.673V73.2566H282.54V50.8566L261.726 29.0089H282.54V6Z" fill="#0B0B13"/>
<path fill-rule="evenodd" clip-rule="evenodd" d="M362.186 6H307.318V29.6186L329.328 50.2478H307.318V73.2566H362.186V50.8566L340.487 29.0089H362.186V6Z" fill="#0B0B13"/>
</g>
</g>
<defs>
<clipPath id="clip0_403_704">
<rect width="354" height="500" fill="white" transform="translate(79 6)"/>
</clipPath>
<clipPath id="clip1_403_704">
<rect width="213" height="68" fill="white" transform="translate(149.796 6)"/>
</clipPath>
</defs>
</svg>
