<svg width="512" height="512" viewBox="0 0 512 512" fill="none" xmlns="http://www.w3.org/2000/svg">
<path fill-rule="evenodd" clip-rule="evenodd" d="M6 6H506V506H6V6ZM137.468 423.837L137.469 423.836C148.545 447.327 170.364 466.793 207.95 466.793C249.57 466.793 278.097 444.641 278.097 395.975V235.548H231.11V395.31C231.11 418.802 221.375 424.842 205.936 424.842C189.829 424.842 183.113 413.768 175.732 400.68L137.469 423.836L137.467 423.833L137.468 423.837ZM341.878 396.65L303.62 418.802C317.379 445.989 345.572 466.797 389.204 466.797C433.842 466.797 467.069 443.64 467.069 401.348C467.069 362.081 444.581 344.63 404.64 327.512L392.894 322.478C372.759 313.751 364.032 308.044 364.032 293.947C364.032 282.537 372.759 273.811 386.52 273.811C399.944 273.811 408.668 279.516 416.724 293.947L453.308 270.454C437.871 243.267 416.39 232.862 386.519 232.862C344.564 232.862 317.714 259.714 317.714 294.955C317.714 333.217 340.202 351.341 374.102 365.771L385.846 370.809C407.327 380.203 420.08 385.91 420.08 402.02C420.08 415.445 407.665 425.179 388.196 425.179C365.039 425.179 351.949 413.098 341.878 396.65Z" fill="#333333"/>
</svg>
