<svg width="512" height="512" viewBox="0 0 512 512" fill="none" xmlns="http://www.w3.org/2000/svg">
<g clip-path="url(#clip0_407_1034)">
<g clip-path="url(#clip1_407_1034)">
<path fill-rule="evenodd" clip-rule="evenodd" d="M496.969 305.404C494.062 296.601 486.447 290.468 476.597 288.995C471.954 288.302 466.635 288.598 460.342 289.895C449.373 292.158 441.235 293.02 435.296 293.188C457.713 255.337 475.942 212.173 486.437 171.542C503.405 105.845 494.337 75.9149 483.741 62.3761C455.699 26.5444 414.784 7.29377 365.423 6.70366C339.093 6.3823 315.976 11.5813 303.919 15.319C292.691 13.3393 280.618 12.2329 267.95 12.028C244.208 11.6496 223.229 16.825 205.303 27.4626C195.376 24.1078 179.45 19.3769 161.056 16.357C117.794 9.25444 82.9273 14.7893 57.424 32.806C26.5416 54.6208 12.2245 92.5218 14.8727 145.458C15.7125 162.265 25.115 213.4 39.918 261.897C48.4258 289.771 57.498 312.92 66.8825 330.703C80.1907 355.921 94.4304 370.772 110.417 376.104C119.378 379.091 135.658 381.18 152.782 366.921C154.953 369.548 157.847 372.161 161.691 374.586C166.571 377.664 172.539 380.179 178.498 381.67C199.978 387.04 220.098 385.696 237.263 378.17C237.368 381.223 237.45 384.14 237.519 386.658C237.633 390.744 237.745 394.749 237.895 398.495C238.912 423.826 240.635 443.521 245.741 457.3C246.021 458.06 246.399 459.214 246.797 460.438C249.343 468.238 253.604 481.294 264.44 491.521C275.663 502.112 289.236 505.362 301.668 505.361C307.903 505.361 313.852 504.543 319.069 503.425C337.669 499.44 358.792 493.366 374.072 471.61C388.517 451.041 395.54 420.062 396.811 371.248C396.976 369.869 397.128 368.551 397.275 367.294C397.373 366.447 397.474 365.58 397.576 364.716L400.98 365.015L401.857 365.074C420.801 365.937 443.964 361.92 458.189 355.312C469.43 350.095 505.45 331.08 496.969 305.404M218.689 160.403C213.615 159.696 209.017 160.35 206.691 162.11C205.382 163.101 204.978 164.249 204.869 165.04C204.577 167.133 206.044 169.446 206.944 170.64C209.493 174.018 213.217 176.34 216.903 176.852C217.437 176.926 217.968 176.962 218.497 176.962C224.644 176.962 230.232 172.176 230.724 168.643C231.34 164.219 224.917 161.27 218.689 160.403M386.841 160.543H386.84C386.356 157.075 380.184 156.086 374.328 156.9C368.481 157.715 362.809 160.355 363.283 163.83C363.664 166.533 368.542 171.148 374.32 171.147C374.807 171.147 375.3 171.114 375.796 171.045C379.652 170.511 382.482 168.062 383.826 166.65C385.874 164.5 387.057 162.102 386.841 160.543M483.321 309.078C481.174 302.583 474.262 300.493 462.776 302.865C428.676 309.903 416.464 305.028 412.453 302.075C438.959 261.695 460.764 212.886 472.527 167.345C478.1 145.773 481.178 125.74 481.429 109.412C481.707 91.4872 478.655 78.3179 472.359 70.2726C446.976 37.8381 409.723 20.4407 364.628 19.9625C333.626 19.6143 307.433 27.5488 302.355 29.7793C291.662 27.1199 280.004 25.4873 267.314 25.2791C244.04 24.9028 223.924 30.4747 207.268 41.8311C200.033 39.1392 181.336 32.7209 158.472 29.038C118.94 22.6723 87.5283 27.495 65.1111 43.3763C38.3627 62.3269 26.0142 96.2013 28.407 144.057C29.2121 160.159 38.3851 209.688 52.8633 257.123C71.9202 319.554 92.6343 354.898 114.431 362.167C116.982 363.018 119.925 363.614 123.167 363.614C131.119 363.614 140.866 360.029 151.009 347.837C167.855 327.569 183.584 310.586 189.382 304.415C197.951 309.015 207.362 311.583 216.991 311.84C217.008 312.092 217.033 312.344 217.056 312.595C215.124 314.886 213.54 316.894 212.189 318.608C205.519 327.075 204.13 328.838 182.658 333.26C176.551 334.519 160.327 337.863 160.091 349.234C159.832 361.658 179.265 366.876 181.48 367.429C189.196 369.36 196.629 370.313 203.718 370.313C220.96 370.312 236.132 364.646 248.257 353.683C247.883 397.974 249.731 441.618 255.049 454.916C259.403 465.801 270.044 492.407 303.655 492.404C308.586 492.404 314.015 491.831 319.987 490.551C355.064 483.03 370.296 467.527 376.189 433.348C379.342 415.082 384.754 371.461 387.298 348.064C392.669 349.739 399.585 350.506 407.06 350.505C422.652 350.505 440.641 347.193 451.924 341.956C464.597 336.07 487.469 321.626 483.321 309.078V309.078V309.078ZM399.788 150.97C399.671 157.878 398.72 164.148 397.713 170.694C396.629 177.734 395.507 185.013 395.225 193.848C394.946 202.447 396.02 211.387 397.059 220.031C399.157 237.493 401.31 255.47 392.974 273.209C391.678 270.908 390.428 268.398 389.281 265.617C388.245 263.106 385.996 259.071 382.882 253.487C370.762 231.753 342.381 180.856 356.909 160.087C361.236 153.904 372.218 147.549 399.788 150.97V150.97V150.97ZM366.371 33.9504C406.776 34.8428 438.737 49.9582 461.367 78.8744C478.723 101.054 459.611 201.977 404.283 289.042C403.737 288.348 403.18 287.647 402.605 286.928C402.375 286.64 402.141 286.348 401.905 286.053C416.202 262.441 413.406 239.079 410.918 218.366C409.895 209.866 408.93 201.838 409.175 194.297C409.43 186.303 410.487 179.449 411.508 172.82C412.765 164.65 414.043 156.198 413.69 146.234C413.953 145.189 414.06 143.954 413.922 142.488C413.022 132.932 402.113 104.337 379.877 78.4523C367.716 64.2965 349.978 48.4533 325.76 37.7676C336.177 35.6087 350.423 33.5954 366.371 33.9504V33.9504V33.9504ZM140.276 338.912C129.102 352.347 121.385 349.773 118.848 348.927C102.312 343.411 83.1277 308.465 66.2129 253.048C51.5768 205.097 43.023 156.88 42.3467 143.359C40.2091 100.599 50.5746 70.7966 73.1564 54.782C109.906 28.72 170.328 44.3192 194.606 52.2313C194.257 52.575 193.894 52.8975 193.548 53.2469C153.708 93.4826 154.654 162.226 154.751 166.427C154.748 168.048 154.883 170.344 155.07 173.502C155.755 185.063 157.031 206.582 153.623 230.952C150.456 253.598 157.436 275.763 172.772 291.764C174.36 293.42 176.017 294.976 177.729 296.439C170.902 303.75 156.067 319.916 140.276 338.912V338.912V338.912ZM182.85 282.107C170.489 269.21 164.876 251.271 167.447 232.885C171.045 207.141 169.716 184.72 169.003 172.675C168.903 170.99 168.815 169.513 168.762 168.347C174.583 163.188 201.554 148.735 220.788 153.142C229.567 155.154 234.913 161.13 237.137 171.411C248.646 224.636 238.661 246.82 230.638 264.646C228.984 268.319 227.422 271.79 226.087 275.383L225.054 278.158C222.436 285.178 220.001 291.704 218.491 297.902C205.352 297.861 192.569 292.249 182.85 282.107V282.107V282.107ZM184.866 353.888C181.03 352.929 177.579 351.264 175.555 349.883C177.245 349.087 180.255 348.006 185.474 346.931C210.735 341.729 214.635 338.06 223.154 327.243C225.108 324.764 227.321 321.953 230.387 318.528C230.388 318.526 230.39 318.525 230.391 318.524C234.958 313.411 237.046 314.278 240.835 315.849C243.905 317.12 246.895 320.967 248.107 325.202C248.681 327.202 249.326 330.999 247.217 333.952C229.421 358.868 203.49 358.548 184.866 353.888V353.888V353.888ZM317.061 476.904C286.159 483.525 275.218 467.758 268.008 449.733C263.355 438.096 261.068 385.621 262.691 327.673C262.712 326.902 262.602 326.157 262.39 325.457C262.205 324.106 261.92 322.739 261.526 321.362C259.112 312.931 253.232 305.878 246.178 302.954C243.375 301.793 238.23 299.662 232.048 301.243C233.367 295.811 235.653 289.678 238.131 283.036L239.172 280.241C240.343 277.091 241.811 273.828 243.365 270.375C251.761 251.722 263.26 226.175 250.78 168.461C246.105 146.844 230.496 136.288 206.832 138.739C192.645 140.207 179.667 145.931 173.194 149.213C171.802 149.919 170.529 150.6 169.34 151.264C171.146 129.482 177.973 88.7785 203.508 63.0256C219.584 46.8117 240.996 38.8044 267.084 39.2355C318.485 40.0776 351.447 66.4565 370.049 88.4381C386.079 107.381 394.759 126.461 398.223 136.752C372.172 134.103 354.455 139.246 345.472 152.087C325.933 180.017 356.162 234.231 370.691 260.285C373.355 265.061 375.655 269.187 376.378 270.94C381.109 282.407 387.234 290.061 391.706 295.65C393.077 297.362 394.407 299.023 395.418 300.473C387.529 302.748 373.356 308.003 374.647 334.273C373.606 347.456 366.198 409.172 362.435 430.976C357.468 459.783 346.867 470.513 317.061 476.904V476.904V476.904ZM446.046 329.296C437.979 333.041 424.477 335.851 411.65 336.453C397.483 337.117 390.272 334.867 388.576 333.483C387.778 317.112 393.873 315.401 400.322 313.59C401.335 313.305 402.324 313.028 403.278 312.695C403.871 313.177 404.521 313.656 405.232 314.126C416.618 321.641 436.928 322.452 465.599 316.534C465.705 316.512 465.81 316.492 465.914 316.47C462.047 320.086 455.43 324.939 446.046 329.296V329.296V329.296Z" fill="#333333"/>
</g>
</g>
<defs>
<clipPath id="clip0_407_1034">
<rect width="485" height="500" fill="white" transform="translate(14 6)"/>
</clipPath>
<clipPath id="clip1_407_1034">
<rect width="485" height="500" fill="white" transform="translate(14 6)"/>
</clipPath>
</defs>
</svg>
