<svg width="512" height="512" viewBox="0 0 512 512" fill="none" xmlns="http://www.w3.org/2000/svg">
<path fill-rule="evenodd" clip-rule="evenodd" d="M135.164 62.0537C135.164 62.0537 127.257 7.14118 253.882 7.14117C386.212 7.14117 375.989 73.3467 375.989 73.3467V182.748C375.989 248.913 308.654 247.824 308.654 247.824H188.806C116.938 247.824 119.213 318.547 119.213 318.547V377.836H77.005C77.005 377.836 6.28222 382.367 6.28223 254.6C6.28223 126.834 87.3099 136.023 87.3099 136.023H256.141V118.942H135.305L135.164 62.0537ZM208.993 67.1355C208.993 55.1133 199.276 45.3964 187.253 45.3964C175.231 45.3964 165.514 55.1133 165.514 67.1355C165.514 79.1578 175.231 88.8747 187.253 88.8747C199.276 88.8747 208.993 79.1578 208.993 67.1355Z" fill="#0B0B13"/>
<path fill-rule="evenodd" clip-rule="evenodd" d="M376.197 448.428C376.197 448.428 384.104 503.34 257.479 503.34C125.149 503.34 135.373 437.135 135.373 437.135V327.733C135.373 261.569 202.707 262.657 202.707 262.657H322.555C394.424 262.657 392.148 191.934 392.148 191.934V132.646H434.356C434.356 132.646 505.079 128.115 505.079 255.881C505.079 383.648 424.051 374.458 424.051 374.458H255.22V391.539H376.056L376.197 448.428ZM302.369 443.346C302.369 455.368 312.085 465.085 324.108 465.085C336.13 465.085 345.847 455.368 345.847 443.346C345.847 431.324 336.13 421.607 324.108 421.607C312.085 421.607 302.369 431.324 302.369 443.346Z" fill="#0B0B13"/>
</svg>
