<svg width="512" height="456" viewBox="0 0 512 456" fill="none" xmlns="http://www.w3.org/2000/svg">
<path d="M420.967 147.647C415.655 145.819 410.152 144.089 404.485 142.453C405.416 138.652 406.271 134.9 407.031 131.212C419.508 70.6498 411.35 21.8605 383.495 5.79699C356.785 -9.60579 313.103 6.45407 268.986 44.8476C264.744 48.5394 260.489 52.4482 256.237 56.5448C253.404 53.8344 250.575 51.2152 247.753 48.7099C201.517 7.65706 155.173 -9.64316 127.345 6.46683C100.661 21.9143 92.7584 67.7808 103.989 125.176C105.074 130.72 106.341 136.381 107.775 142.137C101.216 143.999 94.8837 145.984 88.825 148.096C34.6187 166.994 0 196.613 0 227.336C0 259.067 37.1632 290.893 93.6233 310.191C98.0789 311.714 102.702 313.154 107.467 314.521C105.92 320.746 104.575 326.847 103.446 332.797C92.7375 389.196 101.1 433.979 127.713 449.329C155.203 465.181 201.337 448.887 246.26 409.618C249.811 406.514 253.374 403.223 256.944 399.772C261.571 404.228 266.191 408.445 270.786 412.4C314.299 449.845 357.276 464.965 383.865 449.572C411.326 433.675 420.251 385.567 408.664 327.036C407.779 322.566 406.75 317.999 405.593 313.351C408.833 312.393 412.014 311.405 415.115 310.377C473.811 290.929 512 259.49 512 227.336C512 196.502 476.265 166.684 420.967 147.647ZM408.236 289.615C405.436 290.542 402.564 291.438 399.637 292.306C393.157 271.793 384.411 249.979 373.709 227.443C383.922 205.443 392.329 183.908 398.628 163.528C403.865 165.043 408.949 166.642 413.847 168.329C461.227 184.639 490.128 208.754 490.128 227.336C490.128 247.129 458.916 272.823 408.236 289.615ZM387.208 331.284C392.331 357.166 393.063 380.565 389.669 398.858C386.62 415.295 380.487 426.254 372.905 430.643C356.769 439.983 322.264 427.843 285.05 395.82C280.784 392.149 276.487 388.229 272.177 384.081C286.603 368.302 301.022 349.959 315.094 329.588C339.845 327.392 363.23 323.801 384.436 318.899C385.481 323.112 386.408 327.244 387.208 331.284ZM174.552 429.029C158.788 434.597 146.232 434.756 138.642 430.38C122.492 421.065 115.778 385.109 124.936 336.876C125.985 331.352 127.234 325.678 128.673 319.878C149.647 324.516 172.86 327.854 197.671 329.865C211.838 349.799 226.673 368.122 241.622 384.165C238.356 387.319 235.103 390.321 231.867 393.149C212.003 410.513 192.096 422.833 174.552 429.029ZM100.697 289.494C75.7316 280.961 55.1141 269.871 40.9817 257.769C28.2829 246.894 21.8716 236.097 21.8716 227.336C21.8716 208.692 49.6669 184.912 96.0247 168.75C101.65 166.788 107.538 164.94 113.648 163.204C120.055 184.045 128.46 205.834 138.602 227.868C128.329 250.229 119.805 272.366 113.335 293.451C108.979 292.199 104.758 290.881 100.697 289.494ZM125.454 120.976C115.832 71.8008 122.222 34.7051 138.303 25.3965C155.432 15.4801 193.309 29.6188 233.23 65.0659C235.782 67.3315 238.343 69.7029 240.913 72.1562C226.037 88.1295 211.337 106.315 197.296 126.131C173.216 128.363 150.166 131.948 128.974 136.749C127.641 131.39 126.461 126.124 125.454 120.976ZM346.308 175.51C341.242 166.759 336.041 158.215 330.738 149.905C347.074 151.97 362.726 154.711 377.424 158.066C373.011 172.208 367.511 186.995 361.037 202.153C356.393 193.336 351.481 184.446 346.308 175.51ZM256.244 87.7878C266.333 98.7176 276.436 110.921 286.374 124.161C276.36 123.688 266.222 123.442 256 123.442C245.875 123.442 235.812 123.682 225.86 124.147C235.807 111.03 245.998 98.8434 256.244 87.7878ZM165.604 175.661C160.543 184.437 155.722 193.279 151.151 202.137C144.781 187.031 139.332 172.177 134.881 157.834C149.489 154.565 165.067 151.892 181.299 149.866C175.922 158.254 170.678 166.86 165.604 175.66V175.661ZM181.767 306.366C164.996 304.495 149.184 301.959 134.58 298.781C139.102 284.182 144.671 269.01 151.175 253.579C155.758 262.431 160.599 271.277 165.69 280.071H165.691C170.878 289.031 176.251 297.807 181.767 306.366ZM256.849 368.426C246.483 357.241 236.143 344.869 226.044 331.56C235.847 331.945 245.842 332.142 256 332.142C266.436 332.142 276.752 331.906 286.907 331.454C276.937 345.003 266.87 357.394 256.849 368.426ZM361.246 252.793C368.089 268.391 373.858 283.483 378.438 297.833C363.593 301.219 347.565 303.947 330.678 305.974C335.993 297.551 341.24 288.861 346.395 279.921C351.611 270.877 356.563 261.819 361.246 252.793ZM327.449 268.994C319.446 282.871 311.229 296.119 302.887 308.623C287.694 309.71 271.998 310.269 256 310.269C240.067 310.269 224.568 309.774 209.644 308.805C200.966 296.137 192.571 282.85 184.618 269.113H184.62C176.689 255.414 169.389 241.599 162.774 227.861C169.387 214.091 176.668 200.261 184.554 186.586L184.552 186.588C192.459 172.877 200.78 159.655 209.378 147.066C224.605 145.915 240.219 145.314 255.999 145.314H256C271.851 145.314 287.485 145.919 302.708 147.08C311.174 159.578 319.439 172.757 327.377 186.47C335.405 200.337 342.78 214.076 349.449 227.55C342.8 241.256 335.442 255.133 327.449 268.994ZM372.569 24.7458C389.715 34.6331 396.382 74.5085 385.61 126.797C384.923 130.134 384.149 133.532 383.309 136.976C362.067 132.075 339.001 128.428 314.851 126.162C300.782 106.128 286.203 87.9145 271.57 72.1462C275.504 68.3614 279.433 64.7524 283.345 61.3467C321.144 28.4514 356.473 15.4637 372.569 24.7458ZM256 181.616C281.25 181.616 301.72 202.085 301.72 227.336C301.72 252.586 281.25 273.056 256 273.056C230.75 273.056 210.28 252.586 210.28 227.336C210.28 202.085 230.75 181.616 256 181.616Z" fill="#333333"/>
</svg>
