<svg width="512" height="512" viewBox="0 0 512 512" fill="none" xmlns="http://www.w3.org/2000/svg">
<g clip-path="url(#clip0_407_1024)">
<path fill-rule="evenodd" clip-rule="evenodd" d="M472 0H40C17.9086 0 0 17.9086 0 40V472C0 494.091 17.9086 512 40 512H472C494.091 512 512 494.091 512 472V40C512 17.9086 494.091 0 472 0ZM301.036 456.19V400.95C311.056 409.352 321.94 415.652 333.69 419.852C345.438 424.054 357.3 426.154 369.278 426.154C376.304 426.154 382.438 425.52 387.678 424.254C392.918 422.988 397.296 421.234 400.808 418.99C404.32 416.746 406.942 414.098 408.668 411.05C410.396 408 411.26 404.69 411.26 401.124C411.26 396.29 409.878 391.974 407.114 388.176C404.35 384.378 400.578 380.868 395.798 377.646C391.018 374.424 385.346 371.318 378.78 368.326C372.216 365.332 365.132 362.284 357.53 359.176C338.18 351.12 323.756 341.28 314.254 329.658C304.75 318.034 300 303.994 300 287.538C300 274.648 302.592 263.572 307.774 254.308C312.958 245.044 320.012 237.42 328.938 231.434C337.864 225.45 348.202 221.048 359.95 218.23C371.698 215.41 384.136 214 397.266 214C410.166 214 421.598 214.776 431.56 216.33C441.522 217.884 450.708 220.272 459.116 223.494V275.108C454.97 272.232 450.448 269.7 445.554 267.514C440.658 265.326 435.62 263.514 430.438 262.076C425.254 260.636 420.1 259.572 414.974 258.882C409.85 258.192 404.984 257.846 400.376 257.846C394.042 257.846 388.282 258.45 383.1 259.658C377.916 260.868 373.54 262.564 369.97 264.752C366.4 266.938 363.634 269.556 361.676 272.606C359.718 275.656 358.74 279.078 358.74 282.876C358.74 287.02 359.834 290.73 362.022 294.01C364.21 297.29 367.32 300.398 371.352 303.332C375.382 306.268 380.278 309.144 386.036 311.964C391.796 314.784 398.302 317.688 405.558 320.682C415.464 324.824 424.362 329.226 432.252 333.886C440.14 338.548 446.908 343.812 452.55 349.682C458.194 355.55 462.514 362.254 465.508 369.792C468.502 377.33 470 386.106 470 396.118C470 409.928 467.38 421.522 462.14 430.9C456.898 440.28 449.786 447.876 440.802 453.688C431.82 459.498 421.366 463.67 409.446 466.202C397.526 468.734 384.942 470 371.698 470C358.106 470 345.178 468.85 332.912 466.548C320.646 464.246 310.02 460.794 301.036 456.19ZM280 263.484H208.964V466H152.689V263.484H82V218H280V263.484Z" fill="#333333"/>
</g>
<defs>
<clipPath id="clip0_407_1024">
<rect width="512" height="512" fill="white"/>
</clipPath>
</defs>
</svg>
