<svg width="512" height="512" viewBox="0 0 512 512" fill="none" xmlns="http://www.w3.org/2000/svg">
<g clip-path="url(#clip0_408_779)">
<path fill-rule="evenodd" clip-rule="evenodd" d="M79 103.953L111.214 465.26L255.777 505.391L400.734 465.201L432.982 103.953H79ZM373.275 442.469L256.288 474.652V428.666L255.936 428.749L165.01 403.573L158.802 334.042H203.288L206.517 369.335L255.946 382.61L256.288 382.558V311.033H156.619L152.738 266.785L256.288 222.466V219.404H148.797L144.871 175.157H255.839H256.288V134.043H400.685L373.275 442.469Z" fill="#009FE3"/>
<path fill-rule="evenodd" clip-rule="evenodd" d="M263.432 219.406L256.289 222.467V266.787V311.034H310.406L305.487 368.885L256.289 382.598V428.702L346.914 403.525L358.847 266.787H256.289L362.87 219.406L366.677 175.158H256.289V218.851V219.406H263.432Z" fill="#009FE3"/>
<g clip-path="url(#clip1_408_779)">
<path fill-rule="evenodd" clip-rule="evenodd" d="M204.664 29.0089V6H149.797V73.2566H204.664V50.2478H172.806V29.0089H204.664Z" fill="#009FE3"/>
<path fill-rule="evenodd" clip-rule="evenodd" d="M282.541 6H227.674V29.6186L250.569 50.2478H227.674V73.2566H282.541V50.8566L261.727 29.0089H282.541V6Z" fill="#009FE3"/>
<path fill-rule="evenodd" clip-rule="evenodd" d="M362.186 6H307.318V29.6186L329.328 50.2478H307.318V73.2566H362.186V50.8566L340.486 29.0089H362.186V6Z" fill="#009FE3"/>
</g>
</g>
<defs>
<clipPath id="clip0_408_779">
<rect width="354" height="500" fill="white" transform="translate(79 6)"/>
</clipPath>
<clipPath id="clip1_408_779">
<rect width="213" height="68" fill="white" transform="translate(149.797 6)"/>
</clipPath>
</defs>
</svg>
