<svg width="512" height="512" viewBox="0 0 512 512" fill="none" xmlns="http://www.w3.org/2000/svg">
<g clip-path="url(#clip0_408_775)">
<path d="M104.418 407.582L16.8258 319.991C6.4367 309.338 0 294.281 0 279.564C0 272.75 3.83944 262.098 6.73783 256L87.5918 87.5918L104.418 407.582Z" fill="#009FE3"/>
<path d="M404.232 104.418L316.64 16.8258C308.999 9.14689 293.076 0 279.601 0C268.007 0 256.639 2.33377 249.299 6.73783L87.6289 87.5918L404.232 104.418Z" fill="#009FE3"/>
<path d="M208.836 512H421.059V421.058L262.739 370.506L117.895 421.058L208.836 512Z" fill="#009FE3"/>
<path d="M357.067 87.5547H87.5918L421.058 421.021H512V212.186L404.195 104.38C389.063 89.2109 375.625 87.5547 357.067 87.5547Z" fill="#009FE3"/>
<path opacity="0.2" d="M107.804 410.932C94.3282 397.419 90.9781 384.094 90.9781 360.418V90.9419L87.628 87.5918V360.418C87.5904 384.094 87.5904 390.644 107.804 410.932L117.892 421.02L107.804 410.932Z" fill="#009FE3"/>
<path opacity="0.2" d="M508.649 208.836V417.671H417.707L421.057 421.059H511.999V212.186L508.649 208.836Z" fill="#009FE3"/>
<path opacity="0.2" d="M404.232 104.418C387.519 87.7047 373.855 87.5918 353.717 87.5918H87.6289L90.979 90.9419H353.717C363.767 90.9419 389.138 89.248 404.232 104.418Z" fill="#009FE3"/>
<path opacity="0.2" d="M508.651 208.835L404.234 104.418L316.642 16.8258C309.001 9.14689 293.078 0 279.603 0C268.009 0 256.641 2.33377 249.301 6.73783L87.6309 87.5918L6.7769 256C3.8785 262.136 0.0390625 272.788 0.0390625 279.564C0.0390625 294.281 6.51341 309.3 16.8648 319.991L97.5682 400.129C99.488 402.501 101.746 404.91 104.419 407.582L107.769 410.932L117.857 421.02L205.449 508.612L208.799 511.962H417.634H420.984V421.02H511.926V420.795V212.185L508.651 208.835Z" fill="url(#paint0_radial_408_775)"/>
</g>
<defs>
<radialGradient id="paint0_radial_408_775" cx="0" cy="0" r="1" gradientUnits="userSpaceOnUse" gradientTransform="translate(255.983 255.952) scale(255.962 255.962)">
<stop stop-color="white" stop-opacity="0.1"/>
<stop offset="1" stop-color="white" stop-opacity="0"/>
</radialGradient>
<clipPath id="clip0_408_775">
<rect width="512" height="512" fill="white"/>
</clipPath>
</defs>
</svg>
