<svg width="498" height="499" viewBox="0 0 498 499" fill="none" xmlns="http://www.w3.org/2000/svg">
<path d="M452.161 26.7929C445.201 43.4917 436.29 59.3087 425.614 73.9147C378.842 27.1691 315.423 0.90647 249.296 0.898438C112.539 0.898437 2.31056e-07 113.531 2.31056e-07 250.439C-0.00145401 284.247 6.86172 317.703 20.1736 348.78C33.4854 379.857 52.9687 407.907 77.4427 431.231L86.6372 439.384C131.573 477.271 188.447 498.066 247.223 498.1C377.246 498.1 486.547 396.215 495.804 266.362C502.603 202.797 483.958 122.399 452.161 26.7929ZM112.862 432.652C110.86 435.118 108.333 437.107 105.466 438.473C102.598 439.839 99.4623 440.548 96.286 440.549C84.5677 440.549 74.981 430.904 74.981 419.186C74.981 407.472 84.6298 397.827 96.286 397.827C101.14 397.827 105.935 399.508 109.689 402.618C118.818 409.995 120.243 423.523 112.862 432.652ZM451.128 357.954C389.613 439.967 258.23 412.325 173.989 416.274C173.989 416.274 159.032 417.183 144.01 419.64C144.01 419.64 149.64 417.245 156.959 414.461C216.079 393.878 244.05 389.863 279.986 371.416C347.652 336.979 414.541 261.633 428.464 183.243C402.694 258.655 324.599 323.451 253.439 349.796C204.682 367.793 116.616 385.27 116.616 385.27L113.056 383.39C53.0975 354.199 51.2803 224.284 160.259 182.338C207.983 163.953 253.633 174.052 305.177 161.752C360.216 148.678 423.867 107.377 449.766 53.5222C478.774 139.682 513.677 274.578 451.125 357.954H451.128Z" fill="#009FE3"/>
</svg>
