<svg width="512" height="512" viewBox="0 0 512 512" fill="none" xmlns="http://www.w3.org/2000/svg">
<path d="M400.326 398.836C417.997 391.362 439.065 388.642 466.25 389.32C465.485 384.233 455.771 378.192 448.654 373.766C446.265 372.28 444.169 370.977 442.802 369.952C431.928 362.137 420.374 353.979 408.822 346.846C405.1 344.572 399.742 342.675 394.585 340.849C391.268 339.674 388.035 338.529 385.374 337.332C382.656 336.224 378.953 335.116 374.956 333.92C365.461 331.079 354.302 327.74 350.714 322.721C341.474 310.708 335.026 296.183 328.587 281.678C327.922 280.179 327.256 278.681 326.588 277.186C323.218 269.481 319.468 261.625 315.697 253.724C311.486 244.899 307.248 236.02 303.482 227.234C301.841 223.656 300.593 220.273 299.365 216.942C297.795 212.684 296.256 208.512 293.968 204.128C269.16 156.216 232.464 116.117 187.948 87.914C173.335 78.7388 157.027 70.2415 139.015 64.4665C133.515 62.8172 127.422 62.5517 121.269 62.2836C116.017 62.0547 110.722 61.824 105.715 60.7295H98.5777C94.4576 59.585 90.7999 56.2812 87.3975 53.2079C85.7491 51.719 84.1607 50.2843 82.6085 49.1753C72.0733 42.0403 61.5402 37.2799 48.967 32.185C44.55 30.1471 31.9768 25.3889 27.5598 29.1281C24.8396 29.8081 23.4817 30.8271 22.8016 33.5451C20.0836 37.6232 22.4648 43.7393 24.1617 47.4763C27.5299 54.6619 31.7888 59.9188 36.1531 65.3057C38.3934 68.071 40.6615 70.8705 42.8511 73.9828C43.8969 75.4589 44.9872 76.9684 46.0958 78.5032C51.1112 85.4469 56.5015 92.9095 59.8413 100.146C64.5542 110.299 67.9134 121.031 71.2604 131.724C74.1872 141.075 77.1047 150.396 80.9096 159.273C83.9666 166.41 88.7247 174.564 93.1418 181.021C94.5271 182.911 96.3331 184.614 98.1614 186.337C101.265 189.263 104.432 192.249 105.715 196.313C109.02 201.82 102.953 217.59 99.2663 227.172C98.4035 229.415 97.6711 231.319 97.2198 232.672C88.3836 260.535 90.0826 299.273 100.277 323.399C100.641 324.249 101.003 325.112 101.367 325.982C105.08 334.85 109.065 344.369 118.966 346.846C119.274 346.538 119.304 346.439 119.37 346.392C119.45 346.335 119.583 346.353 120.326 346.166C120.823 342.26 121.247 338.384 121.664 334.562C123.243 320.098 124.736 306.414 129.84 294.856C132.272 288.888 136.285 284.07 140.195 279.375C142.297 276.851 144.369 274.363 146.151 271.75C148.307 273.043 149.095 275.978 149.904 278.993C150.37 280.729 150.843 282.491 151.589 283.982C151.91 284.747 152.232 285.517 152.557 286.292C156.701 296.188 161.159 306.834 166.2 316.603C177.413 338.351 189.988 359.417 204.258 378.447C209.014 385.243 215.813 392.72 221.929 398.836C222.859 399.65 223.829 400.344 224.784 401.028C226.62 402.343 228.402 403.62 229.744 405.632H230.424V406.653C223.973 404.287 219.019 399.199 214.183 394.232C211.378 391.35 208.612 388.509 205.616 386.265C190.325 374.71 171.977 357.379 161.442 340.73C158.124 333.583 154.614 326.627 151.056 319.575C149.878 317.24 148.694 314.894 147.511 312.526C147.511 312.526 147.512 312.185 147.511 311.846C146.212 313.578 146.017 315.309 145.782 317.393C145.649 318.579 145.502 319.88 145.132 321.361C143.872 326.205 143.248 331.243 142.645 336.113C141.133 348.319 139.752 359.464 128.821 363.836C111.492 370.973 98.5778 352.28 93.1418 343.787C75.8126 315.584 71.0545 268.011 83.2866 229.613C84.2329 226.658 84.8913 223.497 85.5478 220.345C86.7784 214.436 88.0024 208.56 91.1038 204.128C90.422 200.044 88.0752 197.929 85.7817 195.861C84.6402 194.832 83.5119 193.815 82.6087 192.574C77.8506 186.119 73.7746 178.642 70.0355 171.507C64.6024 160.901 60.3527 148.718 56.2342 136.911C54.9425 133.208 53.6636 129.542 52.3652 125.973C51.2053 122.991 50.4497 120.008 49.7043 117.065C48.9207 113.971 48.1483 110.922 46.9292 107.963C43.7169 101.003 38.3978 94.0445 33.4595 87.584C32.1283 85.8425 30.8249 84.1372 29.5978 82.4779C28.274 80.5782 26.5213 78.3763 24.5674 75.9219C14.9863 63.8859 0.569549 45.7752 8.19058 27.4291C22.4628 -7.57045 72.4168 18.9318 91.7818 31.1661C93.7183 32.4111 95.7675 34.2187 97.8833 36.085C100.966 38.8043 104.191 41.6485 107.414 43.0593C111.663 43.2299 115.912 43.4847 120.16 43.7395C124.407 43.9942 128.654 44.2488 132.9 44.4194C134.291 44.7449 135.674 45.0652 137.049 45.3836C151.457 48.7202 164.916 51.8369 176.394 58.3505C234.841 92.6721 272.9 127.672 307.899 185.439C312.651 193.213 315.893 201.399 319.194 209.737C321.088 214.517 323 219.347 325.228 224.177C333.723 243.885 343.242 264.611 353.093 283.302C354.331 285.78 355.49 288.337 356.651 290.9C359.629 297.477 362.623 304.088 367.026 309.467C368.608 311.729 372.149 312.936 375.542 314.092C377.247 314.673 378.914 315.242 380.277 315.925C384.672 318.188 389.433 320.243 394.231 322.315C401.676 325.529 409.212 328.783 415.618 332.915C435.326 345.147 454.356 359.756 471.686 374.711C475.189 377.845 478.092 381.679 480.992 385.507C483.437 388.736 485.879 391.961 488.676 394.76V397.817C483.24 399.516 477.802 401.215 472.366 402.575C466.451 404.095 460.872 404.691 455.337 405.283C449.743 405.88 444.193 406.473 438.385 408.011C437.653 408.22 436.903 408.437 436.138 408.657C429.45 410.587 421.647 412.839 414.938 413.449C415.277 413.788 415.618 414.127 415.618 414.127C418.893 423.45 432.82 431.465 444.233 438.034C448.212 440.324 451.885 442.438 454.695 444.371C467.949 453.885 480.181 465.439 490.036 478.69C491.73 480.384 493.425 481.994 495.119 483.603C496.823 485.222 498.527 486.841 500.23 488.545C501.381 490.19 502.134 492.074 502.875 493.928C503.664 495.902 504.439 497.841 505.666 499.419V500.438C502.693 499.377 500.65 497.253 498.623 495.147C497.406 493.882 496.195 492.623 494.792 491.604C491.591 489.422 488.392 487.053 485.192 484.683C480.917 481.517 476.643 478.352 472.366 475.633C465.791 471.48 458.687 468.208 451.547 464.92C444.666 461.752 437.752 458.568 431.248 454.565C423.774 449.807 416.637 444.371 409.502 438.935C403.044 434.176 395.912 424.999 391.831 418.205C390.803 416.59 390.156 414.848 389.533 413.17C388.714 410.967 387.938 408.875 386.393 407.331C386.902 402.504 391.591 401.285 396.056 400.125C397.561 399.734 399.041 399.35 400.326 398.836Z" fill="#F9F9F9"/>
<path d="M105.713 95.729C109.791 94.71 113.867 94.0278 119.645 94.0278C120.721 95.1056 122.066 96.0228 123.423 96.9489C125.491 98.3601 127.589 99.7921 128.82 101.845C129.575 102.902 130.061 103.959 130.547 105.016C131.156 106.338 131.764 107.66 132.898 108.982C132.898 117.136 130.521 122.572 125.761 125.973C125.761 125.973 125.422 126.311 125.083 126.653C123.725 123.937 122.452 121.222 121.18 118.508C119.904 115.785 118.628 113.062 117.265 110.34C115.942 108.488 114.413 106.79 112.879 105.087C110.473 102.415 108.054 99.7283 106.393 96.4091H105.713V95.729Z" fill="#F9F9F9"/>
</svg>
