<svg width="512" height="512" viewBox="0 0 512 512" fill="none" xmlns="http://www.w3.org/2000/svg">
<g clip-path="url(#clip0_403_798)">
<g clip-path="url(#clip1_403_798)">
<path fill-rule="evenodd" clip-rule="evenodd" d="M496.969 305.404C494.063 296.601 486.447 290.468 476.598 288.996C471.954 288.303 466.636 288.598 460.343 289.896C449.374 292.159 441.235 293.02 435.296 293.188C457.713 255.337 475.943 212.174 486.437 171.543C503.406 105.845 494.338 75.9154 483.742 62.3766C455.699 26.5449 414.785 7.29425 365.423 6.70415C339.094 6.38278 315.976 11.5817 303.919 15.3194C292.691 13.3397 280.618 12.2334 267.951 12.0285C244.209 11.6501 223.229 16.8255 205.303 27.4631C195.377 24.1083 179.451 19.3774 161.057 16.3574C117.794 9.25492 82.9278 14.7898 57.4245 32.8065C26.542 54.6213 12.225 92.5223 14.8732 145.458C15.713 162.265 25.1155 213.401 39.9185 261.898C48.4263 289.772 57.4984 312.92 66.883 330.704C80.1911 355.922 94.4309 370.773 110.417 376.105C119.379 379.091 135.659 381.181 152.783 366.922C154.953 369.549 157.848 372.161 161.692 374.587C166.571 377.665 172.54 380.18 178.499 381.67C199.979 387.04 220.098 385.697 237.263 378.171C237.368 381.223 237.45 384.14 237.519 386.659C237.634 390.744 237.746 394.75 237.896 398.495C238.912 423.826 240.636 443.521 245.742 457.301C246.022 458.06 246.399 459.214 246.798 460.438C249.344 468.238 253.605 481.295 264.44 491.521C275.663 502.113 289.237 505.362 301.668 505.361C307.903 505.361 313.852 504.544 319.069 503.425C337.669 499.44 358.792 493.367 374.072 471.61C388.518 451.041 395.541 420.063 396.812 371.249C396.976 369.869 397.129 368.551 397.275 367.295C397.374 366.447 397.475 365.58 397.577 364.716L400.981 365.015L401.857 365.074C420.801 365.938 443.964 361.92 458.189 355.312C469.43 350.096 505.45 331.08 496.969 305.404M218.69 160.403C213.615 159.697 209.018 160.351 206.692 162.111C205.383 163.102 204.979 164.25 204.87 165.04C204.578 167.133 206.045 169.446 206.945 170.64C209.493 174.018 213.218 176.341 216.904 176.852C217.438 176.926 217.969 176.962 218.497 176.962C224.645 176.962 230.232 172.176 230.725 168.644C231.341 164.219 224.918 161.27 218.69 160.403M386.842 160.543H386.84C386.357 157.075 380.185 156.087 374.328 156.901C368.481 157.716 362.81 160.355 363.283 163.831C363.664 166.534 368.543 171.148 374.321 171.147C374.808 171.147 375.3 171.115 375.796 171.045C379.653 170.511 382.482 168.062 383.826 166.65C385.874 164.501 387.058 162.102 386.842 160.543M483.322 309.078C481.174 302.584 474.262 300.493 462.777 302.866C428.676 309.904 416.464 305.028 412.453 302.075C438.96 261.695 460.765 212.887 472.528 167.346C478.101 145.774 481.179 125.741 481.43 109.413C481.707 91.4877 478.656 78.3184 472.36 70.273C446.976 37.8386 409.724 20.4411 364.628 19.963C333.627 19.6148 307.434 27.5493 302.356 29.7798C291.662 27.1204 280.005 25.4878 267.315 25.2796C244.041 24.9033 223.925 30.4752 207.268 41.8316C200.034 39.1397 181.336 32.7214 158.472 29.0385C118.941 22.6728 87.5288 27.4955 65.1116 43.3768C38.3632 62.3274 26.0146 96.2018 28.4075 144.057C29.2126 160.159 38.3856 209.689 52.8638 257.123C71.9207 319.555 92.6348 354.898 114.432 362.168C116.983 363.019 119.925 363.614 123.168 363.614C131.119 363.614 140.867 360.03 151.009 347.837C167.856 327.57 183.585 310.587 189.383 304.416C197.951 309.016 207.363 311.583 216.991 311.841C217.008 312.093 217.034 312.345 217.056 312.595C215.125 314.886 213.54 316.894 212.19 318.608C205.519 327.076 204.131 328.838 182.659 333.26C176.552 334.52 160.328 337.864 160.091 349.234C159.833 361.658 179.266 366.876 181.481 367.429C189.197 369.361 196.63 370.314 203.719 370.314C220.961 370.313 236.132 364.647 248.258 353.683C247.884 397.975 249.731 441.619 255.049 454.917C259.404 465.802 270.045 492.407 303.656 492.405C308.586 492.405 314.016 491.831 319.987 490.552C355.064 483.03 370.296 467.527 376.189 433.348C379.343 415.082 384.754 371.461 387.298 348.064C392.67 349.739 399.585 350.507 407.061 350.505C422.652 350.505 440.642 347.193 451.924 341.956C464.598 336.071 487.469 321.626 483.322 309.078V309.078V309.078ZM399.788 150.971C399.672 157.878 398.721 164.149 397.713 170.695C396.629 177.735 395.507 185.013 395.225 193.849C394.946 202.447 396.02 211.387 397.059 220.032C399.158 237.493 401.311 255.471 392.974 273.21C391.679 270.908 390.428 268.398 389.281 265.618C388.246 263.106 385.996 259.072 382.882 253.488C370.762 231.753 342.381 180.857 356.91 160.088C361.236 153.904 372.219 147.55 399.788 150.971V150.971V150.971ZM366.372 33.9508C406.776 34.8433 438.737 49.9587 461.367 78.8749C478.723 101.055 459.611 201.977 404.284 289.043C403.737 288.348 403.181 287.648 402.605 286.929C402.376 286.641 402.142 286.349 401.905 286.053C416.202 262.441 413.406 239.08 410.918 218.367C409.896 209.867 408.931 201.838 409.176 194.298C409.43 186.303 410.487 179.449 411.508 172.82C412.766 164.651 414.043 156.199 413.691 146.234C413.954 145.189 414.06 143.954 413.923 142.489C413.022 132.933 402.114 104.338 379.878 78.4528C367.716 64.297 349.979 48.4537 325.761 37.768C336.178 35.6092 350.423 33.5959 366.372 33.9508V33.9508V33.9508ZM140.277 338.913C129.103 352.347 121.385 349.773 118.848 348.928C102.313 343.412 83.1282 308.466 66.2134 253.049C51.5772 205.098 43.0235 156.881 42.3472 143.36C40.2096 100.599 50.5751 70.7971 73.1569 54.7825C109.907 28.7205 170.328 44.3197 194.606 52.2318C194.257 52.5755 193.894 52.898 193.548 53.2474C153.709 93.4831 154.654 162.226 154.751 166.428C154.748 168.049 154.884 170.344 155.071 173.502C155.756 185.063 157.031 206.583 153.624 230.953C150.456 253.598 157.437 275.764 172.773 291.765C174.36 293.421 176.018 294.976 177.73 296.44C170.903 303.751 156.067 319.916 140.277 338.913V338.913V338.913ZM182.85 282.107C170.489 269.211 164.876 251.272 167.447 232.885C171.046 207.141 169.717 184.721 169.004 172.676C168.904 170.991 168.815 169.514 168.763 168.348C174.583 163.188 201.554 148.736 220.788 153.143C229.567 155.154 234.914 161.13 237.138 171.412C248.646 224.636 238.662 246.821 230.639 264.647C228.985 268.32 227.423 271.791 226.088 275.383L225.054 278.159C222.437 285.179 220.001 291.704 218.492 297.902C205.353 297.862 192.57 292.25 182.85 282.107V282.107V282.107ZM184.867 353.888C181.031 352.93 177.58 351.265 175.555 349.884C177.246 349.088 180.256 348.006 185.475 346.931C210.735 341.73 214.635 338.061 223.154 327.244C225.108 324.765 227.322 321.953 230.388 318.529C230.389 318.527 230.39 318.526 230.391 318.524C234.959 313.412 237.047 314.278 240.835 315.849C243.905 317.12 246.895 320.968 248.108 325.203C248.681 327.202 249.326 330.999 247.218 333.952C229.421 358.869 203.49 358.549 184.867 353.888V353.888V353.888ZM317.061 476.904C286.16 483.525 275.219 467.758 268.009 449.734C263.355 438.096 261.069 385.622 262.691 327.674C262.713 326.902 262.603 326.158 262.39 325.458C262.205 324.106 261.921 322.739 261.527 321.363C259.113 312.931 253.233 305.878 246.178 302.954C243.376 301.793 238.23 299.662 232.048 301.243C233.367 295.812 235.654 289.679 238.132 283.036L239.172 280.242C240.343 277.092 241.811 273.829 243.366 270.376C251.761 251.723 263.26 226.176 250.781 168.461C246.106 146.844 230.496 136.289 206.833 138.74C192.646 140.208 179.668 145.932 173.195 149.214C171.803 149.919 170.53 150.6 169.341 151.264C171.147 129.483 177.974 88.779 203.508 63.0261C219.585 46.8122 240.996 38.8049 267.084 39.236C318.486 40.0781 351.448 66.457 370.05 88.4386C386.079 107.381 394.759 126.462 398.224 136.752C372.173 134.104 354.455 139.247 345.473 152.087C325.933 180.018 356.163 234.231 370.692 260.285C373.355 265.061 375.655 269.187 376.379 270.941C381.11 282.407 387.235 290.062 391.707 295.65C393.077 297.362 394.408 299.023 395.419 300.473C387.529 302.748 373.357 308.003 374.648 334.274C373.606 347.456 366.198 409.172 362.436 430.977C357.468 459.783 346.868 470.514 317.061 476.904V476.904V476.904ZM446.047 329.296C437.979 333.042 424.477 335.851 411.651 336.454C397.484 337.118 390.272 334.867 388.576 333.483C387.779 317.112 393.874 315.401 400.322 313.591C401.336 313.305 402.324 313.029 403.278 312.695C403.872 313.178 404.521 313.657 405.232 314.126C416.619 321.642 436.929 322.452 465.6 316.535C465.705 316.512 465.81 316.492 465.914 316.471C462.048 320.086 455.43 324.939 446.047 329.296V329.296V329.296Z" fill="white"/>
</g>
</g>
<defs>
<clipPath id="clip0_403_798">
<rect width="485" height="500" fill="white" transform="translate(14 6)"/>
</clipPath>
<clipPath id="clip1_403_798">
<rect width="485" height="500" fill="white" transform="translate(14 6)"/>
</clipPath>
</defs>
</svg>
