<svg width="512" height="512" viewBox="0 0 512 512" fill="none" xmlns="http://www.w3.org/2000/svg">
<path fill-rule="evenodd" clip-rule="evenodd" d="M135.163 62.0531C135.163 62.0531 127.256 7.14063 253.881 7.14062C386.211 7.14062 375.988 73.3462 375.988 73.3462V182.748C375.988 248.912 308.653 247.824 308.653 247.824H188.805C116.937 247.824 119.212 318.547 119.212 318.547V377.835H77.004C77.004 377.835 6.28124 382.366 6.28125 254.6C6.28125 126.833 87.3089 136.023 87.3089 136.023H256.14V118.942H135.304L135.163 62.0531ZM208.992 67.135C208.992 55.1127 199.275 45.3958 187.252 45.3958C175.23 45.3958 165.513 55.1127 165.513 67.135C165.513 79.1572 175.23 88.8741 187.252 88.8741C199.275 88.8741 208.992 79.1572 208.992 67.135Z" fill="#F9F9F9"/>
<path fill-rule="evenodd" clip-rule="evenodd" d="M376.196 448.427C376.196 448.427 384.103 503.34 257.478 503.34C125.148 503.34 135.372 437.134 135.372 437.134V327.733C135.372 261.568 202.706 262.657 202.706 262.657H322.554C394.423 262.657 392.147 191.934 392.147 191.934V132.645H434.355C434.355 132.645 505.078 128.114 505.078 255.881C505.078 383.647 424.05 374.458 424.05 374.458H255.219V391.539H376.055L376.196 448.427ZM302.368 443.345C302.368 455.368 312.085 465.085 324.107 465.085C336.129 465.085 345.846 455.368 345.846 443.345C345.846 431.323 336.129 421.606 324.107 421.606C312.085 421.606 302.368 431.323 302.368 443.345Z" fill="#F9F9F9"/>
</svg>
