<svg width="498" height="499" viewBox="0 0 498 499" fill="none" xmlns="http://www.w3.org/2000/svg">
<path d="M452.161 26.7934C445.201 43.4921 436.29 59.3092 425.614 73.9152C378.842 27.1696 315.423 0.906958 249.296 0.898926C112.539 0.898926 2.31056e-07 113.532 2.31056e-07 250.44C-0.00145401 284.247 6.86172 317.704 20.1736 348.78C33.4854 379.857 52.9687 407.907 77.4427 431.231L86.6372 439.385C131.573 477.271 188.447 498.066 247.223 498.101C377.246 498.101 486.547 396.216 495.804 266.363C502.603 202.797 483.958 122.4 452.161 26.7934V26.7934ZM112.862 432.652C110.86 435.118 108.333 437.107 105.466 438.473C102.598 439.84 99.4623 440.549 96.286 440.55C84.5677 440.55 74.981 430.905 74.981 419.187C74.981 407.472 84.6298 397.827 96.286 397.827C101.14 397.827 105.935 399.508 109.689 402.619C118.818 409.996 120.243 423.524 112.862 432.652ZM451.128 357.955C389.613 439.967 258.23 412.326 173.989 416.274C173.989 416.274 159.032 417.183 144.01 419.641C144.01 419.641 149.64 417.245 156.959 414.461C216.079 393.878 244.05 389.864 279.986 371.416C347.652 336.98 414.541 261.634 428.464 183.244C402.694 258.656 324.599 323.452 253.439 349.797C204.682 367.794 116.616 385.27 116.616 385.27L113.056 383.391C53.0975 354.2 51.2803 224.285 160.259 182.339C207.983 163.954 253.633 174.053 305.177 161.752C360.216 148.679 423.867 107.377 449.766 53.5227C478.774 139.682 513.677 274.579 451.125 357.955H451.128Z" fill="white"/>
</svg>
